<svg width="31" height="31" viewBox="0 0 31 31" fill="none" xmlns="http://www.w3.org/2000/svg"><path d="M30.2692 8.84552C30.1981 7.24691 29.9373 6.14787 29.5637 5.19555C29.1783 4.18468 28.5854 3.27965 27.8085 2.52729C27.0495 1.76323 26.1305 1.16952 25.1225 0.793452C24.1562 0.423128 23.0532 0.164614 21.4405 0.0941305C19.8157 0.0176782 19.2999 0 15.1791 0C11.0582 0 10.5424 0.0176782 8.92363 0.0881613C7.3109 0.158644 6.20216 0.417389 5.24166 0.787483C4.22163 1.16952 3.30861 1.75726 2.54961 2.52729C1.7788 3.27965 1.18007 4.19065 0.800458 5.18981C0.426865 6.14787 0.166067 7.24094 0.0949618 8.83955C0.0178343 10.4501 0 10.9614 0 15.0462C0 19.131 0.0178343 19.6423 0.0889398 21.2469C0.160045 22.8455 0.421074 23.9445 0.794668 24.8968C1.18007 25.9077 1.7788 26.8127 2.54961 27.5651C3.30861 28.3292 4.22765 28.9229 5.23564 29.2989C6.20216 29.6693 7.30488 29.9278 8.91784 29.9983C10.5364 30.069 11.0524 30.0864 15.1733 30.0864C19.2942 30.0864 19.81 30.069 21.4287 29.9983C23.0414 29.9278 24.1502 29.6693 25.1107 29.2989C27.1505 28.5172 28.7632 26.9186 29.5519 24.8968C29.9252 23.9388 30.1863 22.8455 30.2574 21.2469C30.3285 19.6423 30.3463 19.131 30.3463 15.0462C30.3463 10.9614 30.3403 10.4501 30.2692 8.84552ZM27.5359 21.1293C27.4706 22.5987 27.2216 23.3921 27.0141 23.9211C26.5041 25.2318 25.4546 26.2721 24.1323 26.7776C23.5987 26.9833 22.7924 27.2301 21.3159 27.2947C19.715 27.3654 19.2349 27.3828 15.1851 27.3828C11.1353 27.3828 10.6492 27.3654 9.05403 27.2947C7.5717 27.2301 6.77124 26.9833 6.2376 26.7776C5.57958 26.5366 4.98063 26.1545 4.49447 25.6549C3.99048 25.1671 3.60507 24.5793 3.36188 23.9271C3.15435 23.3981 2.90537 22.5987 2.84028 21.1353C2.76895 19.5484 2.75134 19.0722 2.75134 15.0579C2.75134 11.0436 2.76895 10.5617 2.84028 8.98075C2.90537 7.51139 3.15435 6.71794 3.36188 6.18897C3.60507 5.53648 3.99048 4.943 4.50049 4.46087C4.99244 3.96129 5.58537 3.57926 6.24362 3.33842C6.77726 3.13271 7.58374 2.88591 9.06005 2.82116C10.661 2.75068 11.1413 2.733 15.1909 2.733C19.2467 2.733 19.7268 2.75068 21.3219 2.82116C22.8043 2.88591 23.6047 3.13271 24.1384 3.33842C24.7964 3.57926 25.3953 3.96129 25.8815 4.46087C26.3855 4.94874 26.7709 5.53648 27.0141 6.18897C27.2216 6.71794 27.4706 7.51713 27.5359 8.98075C27.607 10.5676 27.6248 11.0436 27.6248 15.0579C27.6248 19.0722 27.607 19.5424 27.5359 21.1293Z" fill="white"/><path d="M15.1789 7.31787C10.8743 7.31787 7.38184 10.7794 7.38184 15.0464C7.38184 19.3133 10.8743 22.7749 15.1789 22.7749C19.4837 22.7749 22.976 19.3133 22.976 15.0464C22.976 10.7794 19.4837 7.31787 15.1789 7.31787ZM15.1789 20.0597C12.3863 20.0597 10.1211 17.8146 10.1211 15.0464C10.1211 12.2781 12.3863 10.0331 15.1789 10.0331C17.9717 10.0331 20.2367 12.2781 20.2367 15.0464C20.2367 17.8146 17.9717 20.0597 15.1789 20.0597Z" fill="white"/><path d="M25.1046 7.01221C25.1046 8.00882 24.2896 8.81689 23.2841 8.81689C22.2789 8.81689 21.4639 8.00882 21.4639 7.01221C21.4639 6.01537 22.2789 5.20752 23.2841 5.20752C24.2896 5.20752 25.1046 6.01537 25.1046 7.01221Z" fill="white"/></svg>
