<svg width="32" height="31" viewBox="0 0 32 31" fill="none" xmlns="http://www.w3.org/2000/svg">
<path d="M15.6594 0C24.3084 0 31.319 6.7509 31.319 15.0774C31.319 23.4049 24.3084 30.1548 15.6594 30.1548C7.01045 30.1548 0 23.4048 0 15.0774C0 6.7509 7.01056 0 15.6594 0Z" fill="white"/>
<path d="M25.4496 10.1576C24.7655 10.4421 24.0294 10.6334 23.2573 10.7201C24.0462 10.2781 24.651 9.57987 24.9358 8.746C24.1979 9.1559 23.3816 9.45276 22.5115 9.61196C21.8156 8.91938 20.8242 8.48682 19.7261 8.48682C17.6199 8.48682 15.9111 10.0822 15.9111 12.0516C15.9111 12.3314 15.9444 12.6038 16.0099 12.8648C12.8389 12.716 10.0261 11.2958 8.14501 9.13892C7.81615 9.66568 7.62823 10.2772 7.62823 10.9312C7.62823 12.1675 8.30154 13.2605 9.32533 13.8986C8.699 13.8797 8.11169 13.7204 7.59597 13.4519V13.4972C7.59597 15.2253 8.91132 16.6662 10.6573 16.9941C10.3373 17.0752 10.0006 17.1195 9.65216 17.1195C9.4065 17.1195 9.16773 17.0978 8.93476 17.0554C9.42016 18.4726 10.8296 19.5035 12.5002 19.5318C11.1937 20.4892 9.54841 21.0584 7.76035 21.0584C7.45202 21.0584 7.14864 21.0414 6.84912 21.0085C8.53935 22.0205 10.5438 22.6113 12.6999 22.6113C19.7192 22.6113 23.5578 17.1761 23.5578 12.4645L23.547 12.0027C24.2908 11.5013 24.9377 10.8737 25.4496 10.1576Z" fill="#111111"/>
</svg>
