<svg xmlns="http://www.w3.org/2000/svg" xmlns:xlink="http://www.w3.org/1999/xlink" width="36pt" height="41pt" viewBox="0 0 36 41" version="1.1">
<g>
<path style=" stroke:none;fill-rule:nonzero;fill:#fff;fill-opacity:1;" d="M 1.285156 10.570312 L 34.714844 10.570312 C 35.425781 10.570312 36 9.996094 36 9.289062 L 36 6.085938 C 36 5.378906 35.425781 4.804688 34.714844 4.804688 L 1.285156 4.804688 C 0.574219 4.804688 0 5.378906 0 6.085938 L 0 9.289062 C 0 9.996094 0.574219 10.570312 1.285156 10.570312 Z M 1.285156 23.382812 L 34.714844 23.382812 C 35.425781 23.382812 36 22.808594 36 22.101562 L 36 18.898438 C 36 18.191406 35.425781 17.617188 34.714844 17.617188 L 1.285156 17.617188 C 0.574219 17.617188 0 18.191406 0 18.898438 L 0 22.101562 C 0 22.808594 0.574219 23.382812 1.285156 23.382812 Z M 1.285156 36.195312 L 34.714844 36.195312 C 35.425781 36.195312 36 35.621094 36 34.914062 L 36 31.710938 C 36 31.003906 35.425781 30.429688 34.714844 30.429688 L 1.285156 30.429688 C 0.574219 30.429688 0 31.003906 0 31.710938 L 0 34.914062 C 0 35.621094 0.574219 36.195312 1.285156 36.195312 Z M 1.285156 36.195312 "/>
</g>
</svg>
