<svg width="58" height="24" viewBox="0 0 58 24" fill="none" xmlns="http://www.w3.org/2000/svg">
<g clip-path="url(#clip0)">
<path d="M2.27063 9.24931C0.833432 11.7433 1.74708 15.5281 3.33639 17.8229C4.1297 18.9702 4.93288 20.0001 6.03298 20.0001C6.05371 20.0001 6.0745 19.9997 6.09579 19.9988C6.61265 19.9782 6.98615 19.8191 7.34727 19.6653C7.75271 19.4925 8.17202 19.3139 8.82973 19.3139C9.45544 19.3139 9.85475 19.4867 10.2409 19.6538C10.6215 19.8185 11.0135 19.9888 11.5927 19.9779C12.8319 19.9549 13.5927 18.8436 14.2639 17.8632C14.9644 16.8396 15.3158 15.8457 15.4343 15.4659L15.4391 15.4508C15.4617 15.3833 15.4298 15.3096 15.3651 15.2799C15.3633 15.2791 15.3567 15.2763 15.3549 15.2756C15.1367 15.1863 13.2225 14.3372 13.2024 12.0227C13.1837 10.1423 14.6384 9.14659 14.9301 8.96611L14.9437 8.95764C14.9753 8.93729 14.9973 8.90502 15.0048 8.86812C15.0123 8.83128 15.0045 8.79293 14.9833 8.76194C13.9792 7.29258 12.4403 7.07114 11.8207 7.04449C11.7308 7.03552 11.638 7.03101 11.5448 7.03101C10.8171 7.03101 10.12 7.30585 9.55995 7.52668C9.17335 7.67912 8.83943 7.81078 8.60912 7.81078C8.35033 7.81078 8.01451 7.67751 7.62563 7.52323C7.1056 7.31683 6.51617 7.08295 5.89219 7.08295C5.8773 7.08295 5.86264 7.08312 5.84821 7.0834C4.39736 7.10475 3.02643 7.93479 2.27063 9.24931Z" fill="#ECECEC"/>
<path d="M11.822 3.00011C10.9434 3.03589 9.88947 3.57671 9.25953 4.31457C8.72417 4.93476 8.20118 5.96881 8.33897 7.0111C8.3476 7.07632 8.40067 7.12665 8.46627 7.13172C8.52558 7.13635 8.58611 7.13869 8.64641 7.13874C9.5055 7.13874 10.4322 6.66347 11.0651 5.89819C11.7313 5.0901 12.0681 4.05305 11.9662 3.12412C11.9582 3.05133 11.8941 2.99726 11.822 3.00011Z" fill="#ECECEC"/>
</g>
<path d="M30.55 12.58C31.43 12.58 32.0633 12.37 32.45 11.95C32.8367 11.53 33.03 10.9433 33.03 10.19C33.03 9.85667 32.98 9.55333 32.88 9.28C32.78 9.00667 32.6267 8.77333 32.42 8.58C32.22 8.38 31.9633 8.22667 31.65 8.12C31.3433 8.01333 30.9767 7.96 30.55 7.96H28.79V12.58H30.55ZM30.55 5.43C31.5767 5.43 32.4567 5.55333 33.19 5.8C33.93 6.04 34.5367 6.37333 35.01 6.8C35.49 7.22667 35.8433 7.73 36.07 8.31C36.2967 8.89 36.41 9.51667 36.41 10.19C36.41 10.9167 36.2933 11.5833 36.06 12.19C35.8267 12.7967 35.47 13.3167 34.99 13.75C34.51 14.1833 33.9 14.5233 33.16 14.77C32.4267 15.01 31.5567 15.13 30.55 15.13H28.79V20H25.41V5.43H30.55ZM42.8219 15.78C42.2019 15.8067 41.6919 15.86 41.2919 15.94C40.8919 16.02 40.5752 16.12 40.3419 16.24C40.1085 16.36 39.9452 16.4967 39.8519 16.65C39.7652 16.8033 39.7219 16.97 39.7219 17.15C39.7219 17.5033 39.8185 17.7533 40.0119 17.9C40.2052 18.04 40.4885 18.11 40.8619 18.11C41.2619 18.11 41.6119 18.04 41.9119 17.9C42.2119 17.76 42.5152 17.5333 42.8219 17.22V15.78ZM37.2419 11.07C37.8685 10.5167 38.5619 10.1067 39.3219 9.84C40.0885 9.56667 40.9085 9.43 41.7819 9.43C42.4085 9.43 42.9719 9.53333 43.4719 9.74C43.9785 9.94 44.4052 10.2233 44.7519 10.59C45.1052 10.95 45.3752 11.38 45.5619 11.88C45.7485 12.38 45.8419 12.9267 45.8419 13.52V20H44.4219C44.1285 20 43.9052 19.96 43.7519 19.88C43.6052 19.8 43.4819 19.6333 43.3819 19.38L43.1619 18.81C42.9019 19.03 42.6519 19.2233 42.4119 19.39C42.1719 19.5567 41.9219 19.7 41.6619 19.82C41.4085 19.9333 41.1352 20.0167 40.8419 20.07C40.5552 20.13 40.2352 20.16 39.8819 20.16C39.4085 20.16 38.9785 20.1 38.5919 19.98C38.2052 19.8533 37.8752 19.67 37.6019 19.43C37.3352 19.19 37.1285 18.8933 36.9819 18.54C36.8352 18.18 36.7619 17.7667 36.7619 17.3C36.7619 16.9267 36.8552 16.55 37.0419 16.17C37.2285 15.7833 37.5519 15.4333 38.0119 15.12C38.4719 14.8 39.0919 14.5333 39.8719 14.32C40.6519 14.1067 41.6352 13.9867 42.8219 13.96V13.52C42.8219 12.9133 42.6952 12.4767 42.4419 12.21C42.1952 11.9367 41.8419 11.8 41.3819 11.8C41.0152 11.8 40.7152 11.84 40.4819 11.92C40.2485 12 40.0385 12.09 39.8519 12.19C39.6719 12.29 39.4952 12.38 39.3219 12.46C39.1485 12.54 38.9419 12.58 38.7019 12.58C38.4885 12.58 38.3085 12.5267 38.1619 12.42C38.0152 12.3133 37.8952 12.1867 37.8019 12.04L37.2419 11.07ZM57.3414 9.63L51.8014 22.69C51.7081 22.8967 51.5947 23.0467 51.4614 23.14C51.3281 23.24 51.1147 23.29 50.8214 23.29H48.5014L50.5014 19.09L46.3614 9.63H49.1014C49.3414 9.63 49.5247 9.68333 49.6514 9.79C49.7847 9.89667 49.8814 10.0233 49.9414 10.17L51.6414 14.64C51.8014 15.0467 51.9314 15.4633 52.0314 15.89C52.1047 15.6767 52.1781 15.4633 52.2514 15.25C52.3247 15.0367 52.4014 14.8267 52.4814 14.62L54.0214 10.17C54.0814 10.0167 54.1881 9.89 54.3414 9.79C54.4947 9.68333 54.6614 9.63 54.8414 9.63H57.3414Z" fill="#ECECEC"/>
<defs>
<clipPath id="clip0">
<rect width="17" height="17" fill="white" transform="translate(0 3)"/>
</clipPath>
</defs>
</svg>
