<svg width="23" height="23" viewBox="0 0 23 23" fill="none" xmlns="http://www.w3.org/2000/svg">
<path d="M22.7944 20.8568H22.7925L21.0798 6.47143C21.0569 6.27857 20.8934 6.13333 20.6991 6.13333H16.4825V4.98333C16.4825 2.2311 14.2514 0 11.4991 0C8.74691 0 6.51581 2.2311 6.51581 4.98333V6.13333H2.29914C2.10494 6.13333 1.9414 6.27857 1.91849 6.47143L0.205761 20.8568C0.0806503 21.9079 0.831313 22.8614 1.88246 22.9866C1.95779 22.9955 2.03354 23 2.10939 23H20.8908C21.9493 23.0002 22.8077 22.1423 22.8079 21.0837C22.8079 21.0079 22.8034 20.9321 22.7944 20.8568ZM7.28248 4.98333C7.28248 2.65454 9.17035 0.766667 11.4991 0.766667C13.8279 0.766667 15.7158 2.65454 15.7158 4.98333V6.13333H7.28248V4.98333ZM21.7491 21.8469C21.5312 22.0923 21.2189 22.2329 20.8908 22.2333H2.10939C1.47426 22.2335 0.95925 21.7189 0.959011 21.0837C0.959011 21.0382 0.961694 20.9928 0.967061 20.9476L2.63954 6.9H6.51581V9.58333C6.51581 9.79503 6.68745 9.96667 6.89914 9.96667C7.11084 9.96667 7.28248 9.79503 7.28248 9.58333V6.9H15.7158V9.58333C15.7158 9.79503 15.8874 9.96667 16.0991 9.96667C16.3108 9.96667 16.4825 9.79503 16.4825 9.58333V6.9H20.3587L22.0312 20.9476C22.07 21.2739 21.9673 21.6013 21.7491 21.8469Z" fill="#ECECEC"/>
</svg>
