<svg width="67" height="67" viewBox="0 0 67 67" fill="none" xmlns="http://www.w3.org/2000/svg">
<path d="M12.0087 27.3854C11.7894 26.9455 11.4425 26.5826 11.0118 26.3101C10.5626 26.035 10.0323 25.8423 9.42619 25.728C8.80948 25.6163 8.09706 25.5658 7.27167 25.5579L3.46107 25.5605C3.06499 25.5658 2.67688 25.8742 2.58384 26.257L0.0199543 37.4243C-0.0730847 37.8018 0.175462 38.1181 0.571542 38.1181H2.39643C2.79251 38.1181 3.18461 37.8111 3.27233 37.4243L3.89835 34.7129C3.98208 34.3354 4.37285 34.0204 4.77291 34.0204H5.29526C7.52687 34.0178 9.25473 33.5619 10.4961 32.6488C11.7442 31.7343 12.3596 30.5261 12.3596 29.0295C12.3582 28.3743 12.2506 27.824 12.0087 27.3854ZM8.07314 31.0339C7.52155 31.4379 6.75464 31.6399 5.76577 31.6399H5.31919C4.92178 31.6399 4.67855 31.3263 4.76494 30.9435L5.31387 28.5723C5.39096 28.1922 5.79103 27.8772 6.18312 27.8798L6.78123 27.8759C7.47902 27.8759 8.012 27.9968 8.36821 28.2307C8.72042 28.462 8.8972 28.8302 8.89454 29.318C8.90517 30.0596 8.62207 30.6298 8.07314 31.0339Z" fill="#ECECEC"/>
<path d="M20.8088 28.9816C20.1203 28.5935 19.0331 28.3994 17.5471 28.3994C16.8121 28.3994 16.0798 28.4566 15.3394 28.5709C14.7932 28.6546 14.74 28.6706 14.4037 28.7437C13.7099 28.8952 13.6009 29.5877 13.6009 29.5877L13.3776 30.5061C13.2514 31.0922 13.589 31.0696 13.7299 31.0205C14.0329 30.9301 14.2017 30.837 14.8211 30.6988C15.4125 30.5646 16.0359 30.4635 16.5303 30.4702C17.26 30.4702 17.8183 30.5473 18.1904 30.7041C18.5573 30.8636 18.7407 31.1374 18.7407 31.5335L18.7088 31.7913L18.4456 31.9535C17.4102 32.0186 16.6619 32.1143 15.7541 32.2459C14.8663 32.3695 14.0874 32.5862 13.4401 32.8826C12.745 33.1883 12.2293 33.599 11.8691 34.1213C11.5209 34.6463 11.3467 35.283 11.3467 36.0299C11.3467 36.733 11.5993 37.3139 12.0897 37.7631C12.5828 38.2044 13.2341 38.4197 14.013 38.4197C14.5061 38.4171 14.8875 38.3785 15.1587 38.3134L16.0425 38.009L16.7908 37.5943L17.4793 37.1398L17.4886 37.1531L17.4195 37.4455L17.4155 37.4574V37.4601C17.3411 37.8163 17.5564 38.1087 17.9033 38.1433L17.91 38.1512H17.9419H19.3414H19.6046L19.6285 38.1406C19.9927 38.0981 20.3343 37.8057 20.4141 37.4574L21.7445 31.6983L21.8136 31.2291L21.8455 30.7892C21.8508 29.9731 21.4986 29.3683 20.8088 28.9816ZM17.8661 35.4571L17.5817 35.8319L16.8639 36.2027C16.5264 36.3396 16.206 36.4087 15.9096 36.4087C15.4604 36.4087 15.1082 36.3436 14.8703 36.2107L14.518 35.5262C14.518 35.1554 14.6031 34.8616 14.7852 34.6357L15.5587 34.1093C15.8897 33.9977 16.2938 33.9033 16.7616 33.8382C17.179 33.7864 18.003 33.692 18.1107 33.6893L18.2369 33.9113C18.2117 34.0376 17.9778 35.0158 17.8661 35.4571Z" fill="#ECECEC"/>
<path d="M53.9546 28.9897C53.2621 28.6016 52.1762 28.4062 50.6943 28.4062C49.9593 28.4062 49.2256 28.4634 48.4879 28.5817C47.9403 28.6614 47.8858 28.6787 47.5482 28.7505C46.8557 28.9007 46.7481 29.5958 46.7481 29.5958L46.5248 30.5129C46.3999 31.0991 46.7295 31.0725 46.8837 31.0273C47.188 30.9369 47.3515 30.8479 47.9656 30.7043C48.5544 30.5714 49.183 30.473 49.6788 30.4757C50.4058 30.4757 50.9641 30.5541 51.3349 30.711C51.7044 30.8705 51.8852 31.1469 51.8852 31.539L51.8572 31.7955L51.5967 31.9617C50.5507 32.0241 49.8011 32.1198 48.9026 32.2514C48.0174 32.375 47.2359 32.5903 46.5873 32.8881C45.8948 33.1951 45.3724 33.6058 45.0162 34.1295C44.664 34.6545 44.4926 35.2898 44.4926 36.0301C44.4926 36.7386 44.7424 37.3194 45.2395 37.766C45.7353 38.2059 46.3799 38.4265 47.1588 38.4265C47.6492 38.4212 48.0307 38.3893 48.3032 38.3189L49.1844 38.0185L49.9393 37.6038L50.6225 37.1439L50.6345 37.1586L50.572 37.4536L50.5653 37.4589L50.568 37.4643C50.4856 37.8205 50.7022 38.1155 51.0531 38.1474L51.0558 38.1541H51.0877C51.3176 38.1541 52.1124 38.1541 52.4912 38.1541H52.7491L52.777 38.1448C53.1372 38.1009 53.4775 37.8085 53.5532 37.4563L54.8877 31.7051L54.9581 31.2333L54.9966 30.792C54.998 29.9786 54.6497 29.3765 53.9546 28.9897ZM51.0186 35.4653L50.7222 35.8441L50.0111 36.2122C49.6735 36.3478 49.3518 36.4182 49.0608 36.4182C48.5969 36.4182 48.254 36.3518 48.0227 36.2189L47.6665 35.537C47.6665 35.1649 47.7529 34.8738 47.927 34.6438C48.1038 34.4272 48.3736 34.2491 48.7085 34.1188C49.0355 34.0072 49.4396 33.9168 49.9101 33.849C50.3248 33.7972 51.1462 33.7002 51.2525 33.6988L51.3814 33.9208C51.3628 34.0471 51.1276 35.0213 51.0186 35.4653Z" fill="#ECECEC"/>
<path d="M45.1491 27.4265C44.9205 26.9839 44.5776 26.6264 44.1443 26.3473C43.7004 26.0708 43.1741 25.8768 42.5587 25.7651C41.9539 25.6575 41.2322 25.599 40.4121 25.5977L36.5962 25.6003C36.1988 25.607 35.8173 25.9153 35.7256 26.2941L33.1591 37.4668C33.066 37.8456 33.3212 38.1592 33.7093 38.1592L35.5369 38.1566C35.925 38.1592 36.3224 37.8482 36.4141 37.4654L37.0322 34.7527C37.1225 34.3752 37.5146 34.0576 37.9094 34.0602H38.4317C40.666 34.0602 42.3979 33.6003 43.6446 32.6899C44.8767 31.7688 45.5 30.5633 45.5 29.0653C45.4934 28.4127 45.3804 27.8612 45.1491 27.4265ZM41.2136 31.0803C40.6633 31.4764 39.8951 31.6784 38.9115 31.6784H38.457C38.0649 31.6824 37.811 31.3634 37.8988 30.9833L38.4517 28.6161C38.5327 28.2373 38.9288 27.9196 39.3236 27.9236L39.915 27.9196C40.6168 27.9236 41.1432 28.0393 41.502 28.2732C41.8596 28.5071 42.0284 28.874 42.0323 29.3604C42.0363 30.1021 41.7612 30.6736 41.2136 31.0803Z" fill="#ECECEC"/>
<path d="M60.797 26.3832C60.8807 26.0017 60.6414 25.692 60.2494 25.6973H58.6145C58.2796 25.6973 57.9779 25.9459 57.8303 26.2516L57.74 26.3925L57.6576 26.754L55.3728 37.1398L55.2984 37.4588L55.301 37.4668C55.2253 37.8083 55.4353 38.0662 55.7596 38.1154L55.7875 38.1539H57.4848C57.8171 38.1539 58.1294 37.9014 58.2716 37.5904L58.3593 37.4575L60.8023 26.3845L60.797 26.3832Z" fill="#ECECEC"/>
<path d="M33.2096 28.539C32.7776 28.5443 31.0218 28.539 31.0218 28.539C30.6284 28.539 30.1234 28.8566 29.8735 29.2354C29.8735 29.2354 27.2604 33.7199 27.0065 34.1705L26.7035 34.1665L25.8901 29.266C25.7997 28.8806 25.397 28.5509 24.8959 28.5509L23.2611 28.5536C22.8676 28.5536 22.6257 28.8673 22.7148 29.2501C22.7148 29.2501 23.9562 36.3144 24.2047 37.9771C24.3204 38.8942 24.1901 39.0577 24.1901 39.0577L22.5739 41.8728C22.3347 42.2556 22.4636 42.5679 22.8557 42.5679L24.7457 42.5653C25.1391 42.5653 25.6562 42.2556 25.8901 41.8715L33.1604 29.5744C33.1604 29.5757 33.8595 28.5243 33.2096 28.539Z" fill="#ECECEC"/>
</svg>
