<svg width="20" height="16" viewBox="0 0 20 16" fill="none" xmlns="http://www.w3.org/2000/svg">
<path d="M6.51564 15.5086C13.5915 15.5086 17.461 9.64648 17.461 4.56328C17.461 4.39679 17.4575 4.23099 17.4501 4.0661C18.2011 3.52305 18.8539 2.84538 19.369 2.07403C18.6797 2.38053 17.9378 2.58658 17.1598 2.6798C17.954 2.20337 18.5638 1.45002 18.8514 0.551972C18.1081 0.992628 17.2849 1.31277 16.4087 1.48569C15.7067 0.737958 14.7072 0.270355 13.6005 0.270355C11.4763 0.270355 9.75343 1.99308 9.75343 4.11667C9.75343 4.41869 9.78725 4.71223 9.85318 4.99385C6.65599 4.83298 3.82079 3.30232 1.92367 0.974625C1.59343 1.54302 1.40286 2.20349 1.40286 2.90821C1.40286 4.24268 2.08202 5.42109 3.11469 6.11022C2.48357 6.09085 1.89076 5.91759 1.37247 5.62921C1.3719 5.64537 1.3719 5.66108 1.3719 5.67828C1.3719 7.54135 2.69788 9.09689 4.45833 9.44937C4.13497 9.53732 3.79476 9.58468 3.44389 9.58468C3.19644 9.58468 2.95519 9.56037 2.72081 9.51531C3.21055 11.0438 4.63078 12.156 6.31452 12.1872C4.99782 13.2192 3.3392 13.8339 1.53656 13.8339C1.2265 13.8339 0.920006 13.8161 0.618896 13.7806C2.32144 14.8719 4.34309 15.5087 6.51575 15.5087" fill="#F3F3F3"/>
</svg>
