<?xml version="1.0" encoding="UTF-8"?>
<svg xmlns="http://www.w3.org/2000/svg" xmlns:xlink="http://www.w3.org/1999/xlink" width="30pt" height="34pt" viewBox="0 0 30 34" version="1.1">
<g id="surface1">
<path style=" stroke:none;fill-rule:nonzero;fill:rgb(0%,0%,0%);fill-opacity:1;" d="M 1.070312 8.765625 L 28.929688 8.765625 C 29.519531 8.765625 30 8.289062 30 7.703125 L 30 5.046875 C 30 4.460938 29.519531 3.984375 28.929688 3.984375 L 1.070312 3.984375 C 0.480469 3.984375 0 4.460938 0 5.046875 L 0 7.703125 C 0 8.289062 0.480469 8.765625 1.070312 8.765625 Z M 1.070312 19.390625 L 28.929688 19.390625 C 29.519531 19.390625 30 18.914062 30 18.328125 L 30 15.671875 C 30 15.085938 29.519531 14.609375 28.929688 14.609375 L 1.070312 14.609375 C 0.480469 14.609375 0 15.085938 0 15.671875 L 0 18.328125 C 0 18.914062 0.480469 19.390625 1.070312 19.390625 Z M 1.070312 30.015625 L 28.929688 30.015625 C 29.519531 30.015625 30 29.539062 30 28.953125 L 30 26.296875 C 30 25.710938 29.519531 25.234375 28.929688 25.234375 L 1.070312 25.234375 C 0.480469 25.234375 0 25.710938 0 26.296875 L 0 28.953125 C 0 29.539062 0.480469 30.015625 1.070312 30.015625 Z M 1.070312 30.015625 "/>
</g>
</svg>
