<svg width="59" height="73" viewBox="0 0 59 73" fill="none" xmlns="http://www.w3.org/2000/svg">
<path d="M57.9589 40.0542L48.3176 27.4434C47.9607 26.977 47.3099 26.8619 46.8163 27.1779L40.5915 31.1641H32.473C32.3679 31.1641 32.2633 31.1866 32.1623 31.2163L25.8676 33.0408L19.336 31.2419L12.9894 27.1779C12.5043 26.8672 11.8652 26.9725 11.5044 27.423L0.840413 40.7233C0.457185 41.2012 0.520471 41.8991 0.982805 42.2995L6.57213 47.1429L11.5866 53.947C10.1201 55.5202 10.1486 58.0013 11.6745 59.5382C12.3509 60.2188 13.2109 60.6033 14.0956 60.6927C14.0649 60.8945 14.049 61.0994 14.049 61.3074C14.049 62.3809 14.4643 63.3903 15.2181 64.1492C15.9722 64.9086 16.9747 65.3268 18.0408 65.3268C18.0553 65.3268 18.0694 65.3259 18.0835 65.3254C18.083 65.3529 18.0817 65.3799 18.0817 65.4073C18.0817 66.4808 18.497 67.4902 19.2507 68.2496C20.0049 69.0085 21.0073 69.4267 22.0735 69.4267C22.284 69.4267 22.4923 69.4094 22.6967 69.3776C22.7833 70.2714 23.1661 71.1414 23.8446 71.8247C24.6225 72.6084 25.6448 73 26.667 73C27.6892 73 28.7115 72.6084 29.4898 71.8247L30.1002 71.21L30.3564 71.418C31.1282 72.1707 32.1302 72.5469 33.1322 72.5469C34.1544 72.5469 35.1767 72.1552 35.9545 71.3715C36.7487 70.5719 37.1376 69.5165 37.1214 68.4664C38.1638 68.4823 39.2124 68.0912 40.0066 67.292C40.7998 66.4928 41.1888 65.4383 41.1734 64.3886C42.2593 64.4059 43.2895 63.9859 44.0581 63.212C44.8523 62.4124 45.2412 61.357 45.225 60.3069C46.2683 60.3228 47.316 59.9316 48.1102 59.132C49.4655 57.7673 49.64 55.6578 48.6349 54.1006L52.2962 46.3795L57.8007 41.6101C58.2556 41.2158 58.325 40.5326 57.9589 40.0542ZM12.6282 29.6422L17.1918 32.5642L7.26431 44.7422L3.28613 41.2946L12.6282 29.6422ZM13.272 55.4622L14.6494 54.0753C14.6911 54.0333 14.7351 53.9935 14.7799 53.9563C15.0493 53.735 15.3754 53.6032 15.7208 53.5718C15.7305 53.5709 15.7406 53.5709 15.7503 53.5704C15.7995 53.5664 15.8487 53.5638 15.8984 53.5642C16.3704 53.5709 16.809 53.7651 17.1342 54.1107C17.7723 54.79 17.738 55.8998 17.0577 56.5849L15.7221 57.9297C15.0467 58.6098 13.9475 58.6098 13.272 57.9297C12.5965 57.2491 12.5965 56.1423 13.272 55.4622ZM16.8156 62.5407C16.4882 62.2114 16.308 61.7734 16.308 61.3074C16.308 60.8414 16.4882 60.4033 16.8156 60.0737L19.4863 57.3845C19.9979 56.8694 20.8021 56.7282 21.4561 57.042C22.1302 57.3655 22.5095 58.1022 22.4106 58.8435C22.3579 59.2391 22.175 59.6117 21.8947 59.8944L19.2661 62.5407C18.9387 62.8704 18.5036 63.0518 18.0408 63.0518C17.5781 63.0518 17.143 62.8704 16.8156 62.5407ZM20.8482 66.6406C20.5208 66.3114 20.3406 65.8733 20.3406 65.4073C20.3406 64.9413 20.5208 64.5032 20.8482 64.1736L23.5185 61.4844C24.0657 60.9339 24.9433 60.8153 25.6131 61.2078C26.2249 61.5663 26.5452 62.2699 26.4402 62.9708C26.3826 63.3562 26.2007 63.7187 25.9269 63.9944L23.2988 66.6406C22.9714 66.9703 22.5363 67.1517 22.0735 67.1517C21.6108 67.1517 21.1757 66.9703 20.8482 66.6406ZM25.4417 70.2161C24.7662 69.536 24.7662 68.4292 25.4417 67.7491L26.819 66.3623C26.8608 66.3202 26.9043 66.2808 26.9491 66.2437C26.9505 66.2428 26.9513 66.2419 26.9522 66.241C27.1763 66.0578 27.4396 65.9352 27.7204 65.8817C27.727 65.8808 27.7336 65.8799 27.7402 65.879C27.7885 65.8702 27.8378 65.8631 27.887 65.8587C27.9068 65.8569 27.9265 65.8569 27.9468 65.8556C27.9872 65.8534 28.0272 65.8507 28.0681 65.8511C28.5396 65.8578 28.9787 66.0516 29.3039 66.3977C29.3439 66.4401 29.3812 66.4844 29.4155 66.53C29.935 67.2137 29.8651 68.2292 29.2204 68.8788L27.8918 70.2166C27.2163 70.8967 26.1172 70.8963 25.4417 70.2161ZM46.5126 57.5234C45.8372 58.204 44.738 58.2036 44.0625 57.5234C44.0379 57.4987 44.012 57.4756 43.9856 57.454L36.7228 50.0639C36.2837 49.6174 35.5687 49.6139 35.1252 50.056C34.6818 50.4976 34.6783 51.2176 35.1169 51.6641L42.4584 59.1333C42.4593 59.1342 42.4602 59.1351 42.4611 59.136C43.1366 59.8161 43.1366 60.9233 42.4611 61.6034C42.1337 61.9331 41.6986 62.1145 41.2358 62.1145C40.7726 62.1145 40.3375 61.9331 40.0105 61.6034L35.0993 56.607C34.6607 56.1605 33.9457 56.1569 33.5022 56.5986C33.0588 57.0406 33.0553 57.7606 33.4939 58.2071L38.3299 63.127C38.3546 63.158 38.3809 63.1876 38.409 63.216C39.0845 63.8961 39.0845 65.0033 38.409 65.6834C37.7331 66.3636 36.6335 66.3631 35.9581 65.683L33.2777 62.9558C32.8386 62.5093 32.1236 62.5053 31.6802 62.9474C31.2367 63.389 31.2332 64.109 31.6718 64.5555L34.2775 67.2061C34.3021 67.2371 34.3285 67.2672 34.357 67.2955C35.0325 67.9757 35.0325 69.0828 34.357 69.763C33.6815 70.4436 32.5824 70.4431 31.9069 69.763C31.8291 69.6847 31.7377 69.6245 31.6507 69.5572C31.5769 69.5006 31.5575 69.4612 31.5945 69.3709C31.6318 69.2793 31.6876 69.1966 31.725 69.1045C31.7663 69.0019 31.7997 68.8961 31.8322 68.7899C32.0054 68.2279 32.0563 67.6234 31.9786 67.0402C31.8291 65.9211 31.2178 64.9112 30.2914 64.2722C29.7908 63.9275 29.2116 63.7014 28.6112 63.6164C28.9022 62.3243 28.5528 60.9233 27.644 59.9564C26.896 59.1607 25.8856 58.7142 24.7987 58.6992C24.7592 58.6988 24.7196 58.6988 24.6796 58.6992C24.7038 57.6549 24.3267 56.6172 23.6117 55.8565C22.8633 55.0608 21.8529 54.6143 20.7665 54.5993C20.4435 54.5949 20.1174 54.6294 19.8027 54.7024C19.6682 53.7603 19.1967 52.8885 18.4825 52.265C17.7728 51.6464 16.8802 51.303 15.9296 51.2897C14.9289 51.2751 13.9458 51.6468 13.2026 52.3225L8.83634 46.3986L19.2819 33.5851L22.611 34.502L18.2632 42.227C17.7376 43.1611 17.6049 44.2453 17.8892 45.2799C18.1736 46.3149 18.8407 47.1761 19.7684 47.7053C19.8265 47.7385 19.8849 47.7699 19.9442 47.8C19.9486 47.8022 19.953 47.8044 19.9579 47.8067C20.1139 47.885 20.2743 47.9522 20.4369 48.0089C21.1941 48.2731 22.012 48.3018 22.8009 48.0823C23.8284 47.796 24.6836 47.1239 25.2092 46.1901L28.0347 41.1698L33.0795 41.53L46.5131 55.056C47.1881 55.7365 47.1881 56.8433 46.5126 57.5234ZM46.9807 52.3101L34.3786 39.6214C34.3548 39.5971 34.3298 39.5741 34.3039 39.5524C34.1223 39.4002 33.8973 39.3081 33.66 39.2913L27.4831 38.8501C27.0559 38.8205 26.6314 39.0493 26.4204 39.4241L23.2439 45.0688C23.0158 45.4742 22.6444 45.7658 22.1983 45.8901C21.7527 46.0145 21.2851 45.9561 20.8821 45.7264C20.4795 45.4967 20.1899 45.1228 20.0664 44.6736C19.9429 44.2245 20.0005 43.7536 20.229 43.3483L24.4696 35.8127L26.188 35.3149C26.1994 35.3113 26.2104 35.3069 26.2218 35.3034L32.6351 33.4386H40.3841L50.0579 45.8211L46.9807 52.3101ZM51.5377 44.036L42.5916 32.5788L47.1574 29.6551L55.5168 40.5883L51.5377 44.036Z" fill="white"/>
<path d="M36.9252 18C37.3283 18 37.7314 17.8562 38.039 17.5687L48.7939 7.51328C49.4089 6.93823 49.4089 6.00634 48.7939 5.43129C48.1788 4.85624 47.1821 4.85624 46.5671 5.43129L35.8121 15.4867C35.1971 16.0618 35.1971 16.9937 35.8121 17.5687C36.1197 17.8562 36.5227 18 36.9252 18Z" fill="white"/>
<path d="M19.9434 17.5687C20.229 17.8562 20.6033 18 20.9776 18C21.3513 18 21.7256 17.8562 22.0112 17.5687C22.5823 16.9937 22.5823 16.0618 22.0112 15.4867L12.0244 5.43129C11.4533 4.85624 10.5278 4.85624 9.95666 5.43129C9.38554 6.00634 9.38554 6.93823 9.95666 7.51328L19.9434 17.5687Z" fill="white"/>
<path d="M28.895 18C29.7176 18 30.3848 17.2978 30.3848 16.432V7.56795C30.3848 6.70222 29.7176 6 28.895 6C28.0725 6 27.4053 6.70222 27.4053 7.56795V16.432C27.4053 17.2978 28.0725 18 28.895 18Z" fill="white"/>
<path d="M27.5165 2.07313C27.7535 2.65134 28.3442 3.03078 28.9675 2.99804C29.5832 2.96588 30.124 2.54728 30.3145 1.95737C30.5056 1.36279 30.2977 0.685188 29.8028 0.30634C29.298 -0.0806938 28.594 -0.102326 28.066 0.249045C27.477 0.640756 27.2487 1.42067 27.5165 2.07313Z" fill="white"/>
</svg>
