<svg width="64" height="55" viewBox="0 0 64 55" fill="none" xmlns="http://www.w3.org/2000/svg">
<path d="M54.675 29.3101H49.7593C50.2603 30.6913 50.5341 32.1819 50.5341 33.7356V52.4418C50.5341 53.0896 50.4221 53.7113 50.2184 54.2896H58.3451C61.3808 54.2896 63.8505 51.8028 63.8505 48.7463V38.5487C63.8506 33.4546 59.7344 29.3101 54.675 29.3101Z" fill="white"/>
<path d="M13.6041 33.4255C13.6041 31.8718 13.8779 30.3813 14.3789 29H9.46324C4.40379 29 0.287598 33.1445 0.287598 38.2388V48.4364C0.287598 51.4929 2.75724 53.9796 5.79298 53.9796H13.9198C13.7161 53.4011 13.6041 52.7795 13.6041 52.1318V33.4255Z" fill="white"/>
<path d="M37.6878 24.4971H26.4498C21.3904 24.4971 17.2742 28.6416 17.2742 33.7358V52.4421C17.2742 53.4625 18.0958 54.2898 19.1093 54.2898H45.0283C46.0418 54.2898 46.8634 53.4626 46.8634 52.4421V33.7358C46.8634 28.6416 42.7472 24.4971 37.6878 24.4971Z" fill="white"/>
<path d="M32.0688 0C25.9841 0 21.0339 4.98425 21.0339 11.1109C21.0339 15.2665 23.3119 18.8959 26.676 20.8014C28.2717 21.7051 30.1112 22.2216 32.0688 22.2216C34.0263 22.2216 35.8659 21.7051 37.4616 20.8014C40.8258 18.8959 43.1036 15.2664 43.1036 11.1109C43.1036 4.98438 38.1534 0 32.0688 0Z" fill="white"/>
<path d="M12.6921 10.3562C8.14149 10.3562 4.43945 14.0837 4.43945 18.6656C4.43945 23.2475 8.14149 26.975 12.6921 26.975C13.8464 26.975 14.9456 26.7342 15.9441 26.3015C17.6704 25.5531 19.0939 24.2283 19.9747 22.569C20.593 21.4043 20.9447 20.0757 20.9447 18.6656C20.9447 14.0838 17.2426 10.3562 12.6921 10.3562Z" fill="white"/>
<path d="M51.446 10.3562C46.8954 10.3562 43.1934 14.0837 43.1934 18.6656C43.1934 20.0758 43.5451 21.4045 44.1633 22.569C45.0441 24.2285 46.4676 25.5532 48.194 26.3015C49.1925 26.7342 50.2917 26.975 51.446 26.975C55.9965 26.975 59.6986 23.2475 59.6986 18.6656C59.6986 14.0837 55.9965 10.3562 51.446 10.3562Z" fill="white"/>
</svg>
