<svg width="63" height="55" viewBox="0 0 63 55" fill="none" xmlns="http://www.w3.org/2000/svg">
<path d="M34.8247 0C25.3997 0 17.058 4.41851 12.0087 11.1612C13.0537 11.8014 14.0723 12.6794 15.0575 13.808C18.8243 8.51864 24.915 4.80764 31.9619 4.00989L34.8243 8.55858L37.6866 4.00979C48.5189 5.23575 57.1292 13.3212 58.4353 23.4936L53.5907 26.182L58.4354 28.8705C57.5623 35.6715 53.4147 41.5267 47.5306 45.036C47.9054 45.8384 48.1165 46.6588 48.1538 47.5046C48.1813 48.1227 48.1134 48.7068 47.977 49.2612C56.7356 44.8417 62.7053 36.1557 62.7053 26.1825C62.7053 11.7451 50.1985 0 34.8247 0ZM41.9395 43.12C35.5123 38.2693 33.7151 40.6537 30.7988 43.3919C28.7629 45.3046 23.6107 41.3106 19.162 37.1327C14.713 32.9542 10.4609 28.1166 12.4966 26.2044C15.4131 23.4661 17.9514 21.7773 12.7846 15.7433C7.61957 9.70697 4.1764 14.3412 1.35147 16.9943C-1.90992 20.056 1.17961 31.4656 13.1874 42.7438C25.1969 54.0204 37.3465 56.9198 40.6059 53.8593C43.4305 51.2061 48.3668 47.9731 41.9395 43.12ZM22.3649 30.2799C22.3649 24.9149 29.0533 23.9591 29.0533 21.8655C29.0533 20.8496 28.1874 20.4231 27.3864 20.4231C25.9145 20.4231 25.0928 21.9672 25.0928 21.9672L22.2792 20.1992C22.2792 20.1992 23.7077 17.0693 27.7331 17.0693C30.2652 17.0693 33.0137 18.4312 33.0137 21.5203C33.0137 26.0528 26.7805 26.9271 26.6721 28.7969H33.2521V31.8453H22.5384C22.43 31.2763 22.3649 30.7685 22.3649 30.2799ZM34.8344 26.175L40.8085 17.3127H45.44V25.3821H47.2794V28.3288H45.44V31.8455H41.6953V28.3288H34.8345V26.175H34.8344ZM41.6952 25.3821V22.1301C41.6952 21.3372 41.8252 20.5037 41.8252 20.5037H41.7818C41.7818 20.5037 41.4577 21.3983 41.0243 22.008L38.6874 25.3415V25.3822L41.6952 25.3821Z" fill="white"/>
</svg>
