<svg width="44" height="53" viewBox="0 0 44 53" fill="none" xmlns="http://www.w3.org/2000/svg">
<path d="M38.5723 0.00952148C39.689 1.41206 40.3593 3.18993 40.3593 5.1232V5.16124V46.9814V47.0194C40.3593 48.9528 39.689 50.7305 38.5723 52.1331C41.2639 51.9752 43.4056 49.7253 43.4056 46.9814V5.16124C43.4056 2.4174 41.2639 0.167381 38.5723 0.00952148Z" fill="white"/>
<path d="M16.542 19.937C16.6635 22.0228 17.0293 23.9746 17.5868 25.4484C18.2094 27.094 18.8666 27.6051 19.0356 27.6051C19.2045 27.6051 19.8617 27.094 20.4844 25.4484C21.0419 23.9746 21.4076 22.0228 21.5291 19.937H16.542Z" fill="white"/>
<path d="M19.0356 9.20166C18.8666 9.20166 18.2094 9.71276 17.5868 11.3583C17.0292 12.8321 16.6635 14.7839 16.542 16.8697H21.5291C21.4076 14.7839 21.0418 12.8321 20.4844 11.3583C19.8617 9.71276 19.2045 9.20166 19.0356 9.20166Z" fill="white"/>
<path d="M24.58 16.8698H28.0465C27.5693 14.0185 25.7856 11.6083 23.3384 10.2876C24.0244 12.1095 24.4536 14.4041 24.58 16.8698Z" fill="white"/>
<path d="M13.4909 16.8698C13.6173 14.4041 14.0465 12.1095 14.7325 10.2876C12.2854 11.6083 10.5016 14.0185 10.0244 16.8698H13.4909Z" fill="white"/>
<path d="M32.1179 0H0.757812V52.1429H32.1179C34.9825 52.1429 37.3131 49.8275 37.3131 46.9815V5.16133C37.3131 2.31535 34.9825 0 32.1179 0V0ZM23.6049 44.4748H14.466V41.4076H23.6049V44.4748ZM26.6511 38.3403H11.4198V35.2731H26.6511V38.3403ZM19.0355 30.6723C12.3166 30.6723 6.85036 25.1684 6.85036 18.4034C6.85036 11.6383 12.3166 6.13446 19.0355 6.13446C25.7543 6.13446 31.2205 11.6383 31.2205 18.4034C31.2205 25.1684 25.7543 30.6723 19.0355 30.6723Z" fill="white"/>
<path d="M24.58 19.937C24.4536 22.4027 24.0244 24.6972 23.3384 26.5192C25.7856 25.1984 27.5693 22.7883 28.0465 19.937H24.58Z" fill="white"/>
<path d="M13.4909 19.937H10.0244C10.5016 22.7883 12.2854 25.1984 14.7325 26.5192C14.0465 24.6972 13.6173 22.4027 13.4909 19.937Z" fill="white"/>
</svg>
